# xmcd
# 
# Track frame offsets:
#     150
#     19218
#     34560
#     52205
#     72513
#     84525
#     111745
#     128983
#     140035
#     152653
#     171820
#     193353
# 
# Disc length: 2888
# 
# Revision: 0
# Processed by: cddbd v1.5.2PL0 Copyright (c) Steve Scherf et al.
# Submitted via: BonkEnc v1.0rc2
# 
DISCID=b90b460c
DTITLE=Don Baker - Born With The blues
DYEAR=0
DGENRE=
TTITLE0=Born With The Blues
TTITLE1=Don't Start Me Talking
TTITLE2=Lonesome Road
TTITLE3=Spotlight
TTITLE4=Hesitation Blues
TTITLE5=Mannish Boy
TTITLE6=Ain't Got No Money
TTITLE7=Lord Have Mercy
TTITLE8=Six Days On The Road
TTITLE9=Louise baby
TTITLE10=Shoeshine Man
TTITLE11=Magnolia
EXTD=
EXTT0=
EXTT1=
EXTT2=
EXTT3=
EXTT4=
EXTT5=
EXTT6=
EXTT7=
EXTT8=
EXTT9=
EXTT10=
EXTT11=
PLAYORDER=
